<?xml version="1.0" standalone="no"?>
<!DOCTYPE svg PUBLIC "-//W3C//DTD SVG 20010904//EN"
 "http://www.w3.org/TR/2001/REC-SVG-20010904/DTD/svg10.dtd">
<svg version="1.0" xmlns="http://www.w3.org/2000/svg"
 width="756.000000pt" height="756.000000pt" viewBox="0 0 756.000000 756.000000"
 preserveAspectRatio="xMidYMid meet">
<metadata>
Created by potrace 1.11, written by Peter Selinger 2001-2013
</metadata>
<g transform="translate(0.000000,756.000000) scale(0.100000,-0.100000)"
fill="#000000" stroke="none">
<path d="M4443 7507 l-162 -51 4 -85 c2 -48 7 -122 10 -166 15 -187 17 -168
-21 -193 -19 -12 -38 -22 -43 -22 -5 0 -11 -3 -13 -7 -1 -5 -23 -21 -47 -38
-25 -16 -86 -70 -135 -119 l-91 -89 -65 17 c-36 9 -72 18 -80 21 -8 2 -31 9
-50 14 -148 40 -195 53 -199 57 -3 2 -25 -35 -51 -83 -25 -49 -63 -118 -83
-156 -20 -37 -37 -73 -36 -80 0 -6 58 -60 127 -119 70 -59 140 -119 156 -133
23 -20 27 -29 21 -52 -4 -15 -9 -41 -12 -58 -2 -16 -6 -36 -9 -44 -9 -28 -18
-147 -17 -242 l1 -96 -146 -84 c-81 -46 -160 -91 -177 -100 -36 -20 -37 -38
-1 -147 13 -42 34 -110 46 -150 l21 -73 72 6 c40 3 108 7 152 10 44 3 106 7
137 10 l58 5 51 -77 c62 -92 82 -116 178 -212 73 -74 73 -74 63 -110 -10 -32
-36 -129 -47 -171 -2 -8 -13 -51 -25 -94 -12 -44 -22 -84 -23 -89 -2 -10 12
-19 148 -91 50 -27 107 -58 128 -70 l39 -21 25 30 c14 17 39 46 57 65 17 19
46 53 65 75 122 144 134 154 153 144 10 -5 18 -7 18 -5 0 3 11 1 24 -4 22 -8
55 -13 166 -26 19 -3 81 -5 137 -5 l102 0 13 -30 c7 -16 16 -29 20 -29 5 0 8
-4 8 -9 0 -9 146 -269 159 -284 4 -4 27 -1 52 7 155 50 269 83 292 85 7 1 6
25 -9 211 -3 41 -7 107 -9 147 l-4 72 44 26 c73 42 174 124 247 198 l67 70 63
-17 c35 -9 106 -27 158 -42 52 -14 102 -27 110 -29 8 -2 15 -4 15 -5 0 -1 14
-4 30 -6 34 -5 25 -18 129 180 l69 129 -39 35 c-22 19 -61 53 -88 76 -27 22
-58 50 -70 61 -12 11 -43 38 -69 60 -46 37 -49 41 -43 75 4 19 9 46 11 60 2
14 7 36 11 50 3 14 8 92 10 174 4 142 5 149 28 167 13 10 27 19 30 19 3 0 35
18 71 40 36 22 67 40 69 40 4 0 158 89 165 96 2 2 0 11 -4 21 -9 21 -13 32
-18 53 -5 23 -56 191 -70 230 -13 35 -13 35 -72 33 -62 -1 -156 -7 -286 -18
l-76 -6 -39 64 c-47 77 -107 150 -193 233 -51 50 -63 67 -59 86 3 13 20 77 37
143 18 66 34 127 36 135 2 8 4 15 5 15 2 0 4 11 15 60 7 34 17 28 -247 164
l-67 34 -21 -26 c-12 -15 -27 -33 -33 -40 -7 -6 -50 -57 -97 -112 -106 -124
-123 -141 -135 -137 -5 2 -19 6 -30 8 -11 2 -31 6 -45 9 -14 3 -36 8 -50 11
-38 8 -155 16 -249 18 -83 1 -85 2 -101 31 -14 25 -82 144 -151 265 -19 34
-41 60 -48 59 -3 -1 -79 -24 -168 -52z m702 -721 c158 -37 278 -98 403 -204
46 -39 137 -145 170 -197 24 -38 80 -155 75 -155 -3 0 -1 -6 4 -12 6 -7 14
-26 18 -43 5 -16 9 -34 11 -40 33 -117 38 -328 10 -430 -9 -33 -19 -70 -21
-82 -8 -36 -64 -153 -95 -200 -17 -24 -30 -48 -30 -52 0 -17 -167 -179 -225
-218 -99 -66 -222 -121 -317 -139 -18 -3 -44 -8 -58 -11 -45 -9 -244 -10 -275
-2 -16 5 -46 11 -65 14 -92 15 -256 89 -343 155 -140 105 -237 233 -308 405
-7 17 -33 102 -47 155 -9 35 -10 281 0 321 5 24 11 51 13 59 42 193 183 407
350 525 114 82 274 148 393 162 26 3 49 7 51 9 10 9 226 -6 286 -20z"/>
<path d="M2475 5500 c-5 -8 -27 -92 -31 -120 -3 -14 -9 -38 -13 -55 -5 -16
-19 -74 -31 -128 -23 -101 -26 -106 -64 -113 -29 -5 -145 -41 -171 -53 -58
-27 -173 -85 -196 -99 -26 -15 -29 -14 -203 98 l-177 113 -129 -129 -128 -129
109 -175 c106 -169 118 -195 101 -202 -12 -4 -122 -231 -122 -250 0 -8 -3 -18
-7 -22 -5 -4 -9 -12 -9 -17 -1 -5 -3 -11 -4 -14 -4 -7 -5 -15 -14 -58 -8 -34
-19 -49 -38 -53 -5 -1 -9 -2 -10 -4 -4 -2 -24 -6 -65 -13 -17 -3 -35 -7 -40
-10 -4 -3 -26 -8 -48 -11 -22 -4 -56 -11 -75 -16 -19 -5 -48 -11 -65 -13 -16
-3 -42 -8 -56 -12 l-26 -6 -2 -179 c-1 -98 2 -181 7 -184 5 -3 19 -7 33 -9 13
-3 44 -10 69 -17 25 -7 54 -14 65 -16 11 -1 38 -7 60 -13 22 -5 51 -12 65 -14
14 -3 44 -11 68 -17 44 -14 43 -11 79 -145 9 -36 37 -99 88 -201 l51 -101
-112 -174 -112 -174 96 -100 c54 -55 112 -113 130 -129 l32 -28 40 26 c22 14
44 26 50 26 5 0 10 3 10 8 0 4 10 12 23 18 12 6 69 40 127 76 l105 65 83 -48
c77 -44 247 -110 318 -124 35 -7 29 14 91 -282 26 -128 28 -133 53 -134 14 -1
94 -2 179 -3 169 -2 160 -5 175 66 4 16 7 30 8 33 0 2 17 73 37 156 34 139 39
153 61 159 144 41 329 117 391 162 14 9 28 4 80 -30 35 -22 115 -73 177 -113
l114 -72 60 59 c33 33 91 90 129 128 l70 68 -18 27 c-17 26 -128 206 -179 290
-26 43 -26 43 -7 70 41 56 124 245 138 315 13 61 28 86 53 92 15 3 52 12 82
19 30 8 69 16 85 18 17 3 57 12 91 21 55 14 97 23 117 25 4 1 7 84 7 184 0
140 -3 184 -12 185 -7 0 -44 8 -83 17 -38 9 -77 18 -85 19 -8 2 -35 9 -60 16
-25 7 -56 14 -70 17 -78 13 -100 24 -106 51 -9 44 -44 155 -58 187 -37 82 -52
114 -78 158 -15 26 -28 53 -28 58 0 11 182 301 208 331 14 16 7 26 -79 115
-108 111 -160 163 -165 163 -6 0 -159 -94 -164 -101 -3 -4 -23 -16 -45 -28
-66 -36 -100 -56 -105 -61 -19 -19 -48 -27 -66 -17 -10 6 -21 13 -24 17 -17
25 -330 150 -374 150 -10 0 -38 99 -37 132 0 4 -6 29 -13 55 -8 27 -22 87 -31
136 l-18 87 -61 1 c-34 0 -114 1 -179 2 -66 1 -120 0 -122 -3z m320 -784 c132
-23 297 -91 366 -149 10 -9 21 -17 24 -17 8 0 67 -52 119 -105 41 -42 156
-203 156 -218 0 -2 10 -26 22 -53 12 -27 23 -53 24 -59 2 -5 10 -35 18 -65 41
-151 40 -314 -5 -479 -87 -323 -370 -580 -709 -646 -89 -18 -349 -7 -392 16
-9 5 -24 9 -32 9 -23 0 -200 78 -204 90 -2 5 -8 10 -13 10 -6 0 -24 10 -41 23
-163 116 -288 285 -349 471 -24 77 -25 79 -35 171 -27 244 37 470 188 663 55
71 74 90 150 152 50 41 160 110 181 114 7 2 26 9 42 15 57 24 105 40 105 35 0
-3 6 -2 13 3 15 9 27 12 92 19 28 4 51 8 53 9 6 5 188 -3 227 -9z"/>
<path d="M5230 3192 c-30 -48 -58 -91 -63 -97 -4 -5 -26 -39 -49 -75 -49 -79
-64 -91 -97 -84 -46 10 -336 5 -336 -6 0 -1 -18 -3 -39 -6 -22 -2 -41 -6 -44
-8 -4 -5 -55 55 -132 159 -25 33 -47 62 -50 65 -3 3 -21 26 -40 53 -28 37 -40
46 -57 42 -21 -5 -237 -103 -311 -141 -2 -1 35 -185 64 -319 3 -11 7 -38 10
-61 5 -36 3 -42 -23 -59 -41 -26 -172 -161 -224 -230 -64 -87 -64 -87 -107
-81 -20 3 -56 8 -78 11 -88 12 -120 16 -154 20 -78 10 -113 16 -121 21 -12 7
-22 -16 -85 -186 -31 -84 -52 -156 -47 -160 16 -15 176 -120 183 -120 4 0 13
-7 20 -15 7 -9 27 -22 44 -30 17 -8 46 -28 64 -43 29 -25 32 -32 27 -65 -8
-50 -8 -198 0 -267 3 -30 8 -68 9 -85 2 -16 7 -37 10 -45 8 -20 1 -28 -57 -70
-27 -19 -57 -42 -66 -50 -9 -8 -53 -42 -96 -75 -85 -64 -105 -81 -105 -89 0
-5 25 -60 105 -233 l43 -92 59 14 c32 7 76 16 98 20 46 8 70 13 70 15 0 1 9 3
20 5 68 11 84 14 122 23 42 10 43 9 76 -32 75 -91 245 -246 270 -246 13 0 48
-41 42 -50 -4 -7 -8 -29 -19 -113 -3 -17 -12 -87 -21 -155 -9 -68 -15 -125
-13 -126 1 -2 77 -30 168 -64 l165 -61 20 27 c11 14 25 34 30 43 6 10 48 76
95 147 l85 128 150 0 c136 -1 198 3 291 19 29 5 35 1 95 -77 35 -46 67 -85 71
-86 4 -2 8 -10 8 -17 0 -7 4 -15 8 -17 4 -2 29 -31 55 -65 l47 -62 43 18 c23
10 71 32 107 48 36 17 91 42 123 57 31 14 57 28 57 30 0 4 -25 121 -36 171
-14 60 -36 175 -41 206 -4 31 0 39 29 61 81 63 207 201 256 280 21 34 23 35
69 28 27 -4 73 -11 104 -14 31 -4 65 -8 75 -10 11 -2 46 -6 79 -10 33 -4 72
-9 86 -12 24 -4 27 0 58 83 18 48 43 115 56 148 41 105 41 109 1 130 -20 11
-36 23 -36 27 0 5 -4 8 -9 8 -6 0 -69 39 -140 87 l-131 86 6 46 c15 106 3 314
-21 390 -8 25 5 38 167 160 81 62 150 116 154 122 3 6 -1 25 -9 42 -19 38 -86
184 -112 245 -21 47 -20 47 -127 23 -24 -6 -54 -12 -68 -14 -14 -3 -73 -15
-132 -28 l-108 -22 -22 29 c-43 57 -184 190 -251 238 l-69 49 7 56 c10 83 15
123 20 149 6 36 19 154 19 185 1 27 -4 30 -144 82 -208 78 -185 80 -250 -23z
m-185 -657 c177 -34 335 -115 459 -234 58 -56 106 -109 106 -118 0 -4 8 -16
19 -27 50 -56 133 -258 148 -359 3 -23 6 -91 7 -152 1 -136 -6 -184 -44 -294
-125 -370 -489 -626 -875 -615 -110 3 -132 7 -232 34 -73 20 -240 96 -268 123
-7 7 -23 19 -36 27 -47 31 -162 155 -204 219 -43 66 -93 167 -110 221 -31 99
-36 133 -40 260 -6 162 20 279 92 424 51 104 108 181 193 263 42 41 158 122
164 116 3 -4 6 -2 6 3 0 6 19 18 43 28 23 10 51 22 62 27 41 18 125 49 125 45
0 -2 24 2 53 9 71 16 247 17 332 0z"/>
</g>
</svg>
