<?xml version="1.0" encoding="UTF-8" standalone="no"?>
<svg
   xmlns:dc="http://purl.org/dc/elements/1.1/"
   xmlns:cc="http://creativecommons.org/ns#"
   xmlns:rdf="http://www.w3.org/1999/02/22-rdf-syntax-ns#"
   xmlns:svg="http://www.w3.org/2000/svg"
   xmlns="http://www.w3.org/2000/svg"
   viewBox="0 0 564.85333 756.45331"
   height="756.45331"
   width="564.85333"
   xml:space="preserve"
   id="svg2"
   version="1.1"><metadata
     id="metadata8"><rdf:RDF><cc:Work
         rdf:about=""><dc:format>image/svg+xml</dc:format><dc:type
           rdf:resource="http://purl.org/dc/dcmitype/StillImage" /></cc:Work></rdf:RDF></metadata><defs
     id="defs6" /><g
     transform="matrix(1.3333333,0,0,-1.3333333,0,756.45333)"
     id="g10"><g
       transform="scale(0.1)"
       id="g12"><path
         id="path14"
         style="fill:#ffffff;fill-opacity:1;fill-rule:nonzero;stroke:none"
         d="m 3077.32,3454.15 c -117.63,-10.56 -235.2,0.09 -348.98,32.09 l -207.52,-239.5 -239.51,127.76 82.25,303.48 c -90.77,75.67 -166.03,166.36 -224.19,269.22 l -315.83,-22.89 -79.2,259.91 272.74,156.29 c -10.53,117.76 0.05,234.93 32.23,349.14 l -239.63,207.36 127.73,239.56 303.6,-82.4 c 75.69,91.08 166.27,166.32 269.12,224.11 l -22.54,316.06 259.65,79.05 156.28,-272.69 c 117.74,10.59 234.96,-0.16 348.98,-32.09 l 207.37,239.58 239.64,-127.59 -82.37,-303.52 c 90.86,-75.96 166.36,-166.39 224.37,-269.36 l 315.74,22.56 79.19,-259.48 -272.87,-156.26 c 10.92,-118.01 0.24,-235.09 -31.79,-349.2 l 239.4,-207.55 -127.74,-239.38 -303.39,82.34 c -76.07,-90.89 -166.5,-166.39 -269.37,-224.11 l 22.82,-315.98 -259.66,-79.24 z m 176.66,1847.59 c -118.46,36 -241.23,47.16 -364.31,33.46 l -20.59,-2.52 -151.65,264.8 -162.65,-49.36 22.12,-306.21 -18.23,-9.69 c -109.2,-58.37 -203.84,-137.24 -281.24,-234.08 l -13.13,-16.32 -294.58,79.73 -79.56,-149.73 231.96,-201.19 -6.12,-19.3 c -35.94,-119.05 -47.24,-241.75 -33.29,-364.44 l 2.37,-21.14 -264.75,-151.57 49.56,-162.33 306.02,21.93 9.73,-18.16 c 58.32,-109.03 136.89,-203.7 233.96,-281.03 l 16.54,-13.24 -79.83,-294.49 149.86,-79.77 200.9,232.12 19.69,-6 c 118.91,-36.05 241.32,-47.07 364.22,-33.61 l 21,2.65 151.66,-265.04 162.37,49.45 -22.04,306.36 18.68,9.64 c 108.66,58.51 203.32,137.32 281.02,234.2 l 12.87,16.36 294.48,-80.01 79.73,149.78 -232.03,200.99 6.1,19.97 c 35.89,118.43 47.06,240.95 33.2,364.16 l -2.18,20.89 264.8,151.84 -49.53,162.03 -306.15,-21.73 -9.82,18.26 c -58.22,109.12 -136.97,203.55 -234.18,281.15 l -16.29,12.83 79.87,294.74 -149.72,79.75 -200.94,-232.01 -19.9,5.88" /><path
         id="path16"
         style="fill:#ffffff;fill-opacity:1;fill-rule:nonzero;stroke:none"
         d="m 3714.84,4648.29 c -122.09,399.34 -545.8,625.21 -945.49,503.44 -399.21,-121.92 -624.91,-545.77 -502.83,-945.3 121.58,-399.25 545.54,-625.11 945.1,-503.33 399.07,121.95 624.77,546 503.22,945.19 m -292.19,-1025.63 -18.68,-9.64 22.04,-306.36 -162.37,-49.45 -151.66,265.04 -21,-2.65 c -122.9,-13.45 -245.31,-2.43 -364.22,33.62 l -19.69,6 -200.9,-232.13 -149.86,79.77 79.83,294.49 -16.54,13.25 c -97.06,77.32 -175.64,171.99 -233.96,281.02 l -9.73,18.17 -306.02,-21.94 -49.56,162.33 264.75,151.58 -2.37,21.13 c -13.95,122.69 -2.65,245.39 33.29,364.44 l 6.13,19.3 -231.97,201.2 79.56,149.72 294.58,-79.72 13.13,16.31 c 77.4,96.84 172.04,175.72 281.24,234.09 l 18.23,9.68 -22.12,306.21 162.65,49.36 151.65,-264.8 20.59,2.52 c 123.08,13.7 245.85,2.54 364.31,-33.46 l 19.9,-5.88 200.94,232.01 149.72,-79.74 -79.87,-294.75 16.29,-12.83 c 97.21,-77.59 175.96,-172.02 234.18,-281.15 l 9.82,-18.25 306.15,21.72 49.53,-162.03 -264.8,-151.83 2.18,-20.89 c 13.86,-123.21 2.69,-245.74 -33.2,-364.17 l -6.1,-19.97 232.03,-200.98 -79.73,-149.78 -294.48,80.01 -12.87,-16.37 c -77.7,-96.87 -172.36,-175.68 -281.02,-234.2" /><path
         id="path18"
         style="fill:#ffffff;fill-opacity:1;fill-rule:nonzero;stroke:none"
         d="m 2791.39,5079.86 c -359.64,-109.68 -563.21,-491.8 -453.32,-851.55 109.61,-359.6 491.56,-562.85 851.48,-453.09 359.5,109.57 563.14,491.46 453.3,851.23 -109.83,359.72 -491.52,563.11 -851.46,453.41 m 923.45,-431.57 c 121.55,-399.2 -104.15,-823.24 -503.23,-945.19 -399.56,-121.78 -823.51,104.07 -945.09,503.33 -122.08,399.52 103.62,823.38 502.83,945.3 399.69,121.76 823.4,-104.11 945.49,-503.44" /><path
         id="path20"
         style="fill:#ffffff;fill-opacity:1;fill-rule:nonzero;stroke:none"
         d="m 520.789,3396.96 -160.898,261.47 120.82,118.95 257.078,-164.45 17.481,11.63 c 102.769,69.08 216.769,115.98 338.4,138.89 l 20.25,3.84 71.02,298.55 169.73,-1.55 65.19,-298.04 20.53,-3.95 c 121.45,-23.75 235.21,-71.24 337.53,-141.13 l 17.1,-11.64 261.41,160.97 118.9,-120.94 -164.7,-257.14 11.76,-17.31 c 69.38,-103.07 116.22,-216.71 138.89,-338.4 l 3.89,-20.3 298.61,-71.09 -1.42,-169.42 -298.17,-65.61 -4.06,-20.41 c -23.75,-121.57 -71.18,-235.17 -141.01,-337.6 l -11.76,-16.98 161.08,-261.35 -120.99,-118.89 -257.08,164.74 -17.31,-11.86 c -103.01,-69.21 -216.95,-116.05 -338.41,-139.08 l -20.53,-3.65 -70.91,-298.85 -169.61,1.55 -65.25,298.28 -20.7,3.9 c -121.4,23.86 -234.869,71.34 -337.42,141.24 l -17.039,11.64 -261.242,-161.03 -118.949,121 164.512,256.96 -11.801,17.49 c -69.32,103 -115.992,216.83 -138.902,338.4 l -3.829,20.3 -298.4995,70.84 1.4883,169.67 297.9922,65.26 4.07,20.82 c 23.449,121.22 71.168,234.86 141.117,337.65 z M 1257.6,2108.87 c 417.34,-3.37 760.01,333.45 763.67,750.55 3.44,417.57 -333.03,760.3 -750.66,763.97 -417.34,3.55 -760.071,-333.04 -763.559,-750.73 -3.66,-417.45 332.871,-759.89 750.549,-763.79" /><path
         id="path22"
         style="fill:#ffffff;fill-opacity:1;fill-rule:nonzero;stroke:none"
         d="m 278.609,3668.33 193.86,190.19 264.812,-169.59 c 99.539,64.17 208.399,108.76 324.089,133.08 l 73.06,308.25 271.58,-2.55 67.3,-306.96 c 115.43,-25.23 223.91,-70.67 323.26,-135.41 l 269.65,166.26 190.31,-193.69 -169.59,-264.63 c 63.94,-99.78 108.64,-208.64 133.02,-324.21 l 308.13,-73.35 -2.44,-271.47 -307.07,-67.17 c -25.12,-115.73 -70.43,-224.21 -135.23,-323.33 l 166.13,-269.77 -193.73,-190.01 -264.7,169.65 c -99.77,-64.11 -208.75,-109 -324.15,-133.25 l -73.11,-308.21 -271.47,2.45 -67.47,306.96 c -115.381,25.23 -224.151,70.78 -323.381,135.4 l -269.649,-166.08 -190.082,193.8 169.543,264.64 c -63.941,99.6 -108.582,208.58 -133.14,324.09 L 0,2736.48 2.37891,3008.06 309.578,3075.41 c 25.231,115.56 70.543,224.04 135.402,323.39 z m 89.422,-625.65 -4.07,-20.82 -297.9922,-65.26 -1.4883,-169.67 298.5075,-70.84 3.821,-20.3 c 22.91,-121.58 69.582,-235.4 138.902,-338.4 L 517.52,2339.9 353,2082.93 l 118.949,-120.99 261.242,161.02 17.047,-11.64 c 102.543,-69.89 216.012,-117.37 337.412,-141.24 l 20.7,-3.89 65.26,-298.28 169.6,-1.55 70.91,298.85 20.53,3.65 c 121.46,23.03 235.41,69.87 338.41,139.07 l 17.31,11.87 257.08,-164.75 120.99,118.9 -161.08,261.35 11.76,16.98 c 69.83,102.43 117.26,216.03 141.01,337.6 l 4.07,20.41 298.16,65.6 1.43,169.43 -298.62,71.09 -3.88,20.3 c -22.68,121.68 -69.52,235.33 -138.9,338.4 l -11.75,17.31 164.69,257.14 -118.89,120.93 -261.41,-160.96 -17.11,11.64 c -102.31,69.89 -216.07,117.37 -337.53,141.12 l -20.53,3.96 -65.19,298.04 -169.73,1.55 -71.02,-298.55 -20.25,-3.84 C 972.051,3740.54 858.039,3693.64 755.281,3624.56 l -17.492,-11.64 -257.078,164.46 -120.82,-118.95 160.898,-261.47 -11.629,-16.63 C 439.199,3277.54 391.488,3163.9 368.031,3042.68" /><path
         id="path24"
         style="fill:#ffffff;fill-opacity:1;fill-rule:nonzero;stroke:none"
         d="m 2021.28,2859.42 c -3.66,-417.1 -346.33,-753.92 -763.67,-750.55 -417.688,3.9 -754.219,346.34 -750.551,763.79 3.492,417.69 346.222,754.27 763.561,750.73 417.62,-3.67 754.09,-346.4 750.66,-763.97 m -751.21,688.74 c -375.98,3.41 -684.769,-299.89 -688.082,-676.1 -3.359,-375.98 300.012,-684.53 676.222,-687.72 376.04,-3.37 684.72,299.7 688.02,675.74 3.12,376.22 -299.95,684.95 -676.16,688.08" /><path
         id="path26"
         style="fill:#ffffff;fill-opacity:1;fill-rule:nonzero;stroke:none"
         d="m 4034.91,738.699 59.21,158.832 -256.49,168.789 3.38,20.37 c 20.12,122.09 14.9,244.88 -15.26,365.53 l -5.13,20.14 242.43,185.52 -70.37,154.43 -300.64,-62.34 -12.19,16.74 c -72.31,100.84 -163.03,184.2 -269.13,248.03 l -17.96,10.52 40.3,302.43 -158.92,59.43 -168.57,-256.38 -20.52,3.13 c -122.05,20.04 -245.22,14.83 -365.35,-15.14 l -20.48,-5.01 -185.44,242.47 -154.34,-70.61 62.27,-300.67 -16.61,-11.67 c -100.97,-72.83 -184.46,-163.55 -247.92,-269.36 l -10.95,-18.24 -302.37,40.29 -59.32,-158.97 256.51,-168.37 -3.22,-20.43 c -19.84,-122.06 -14.98,-244.97 15.1,-365.33 l 5.17,-20.541 -242.33,-185.379 70.5,-154.469 300.64,62.34 11.99,-16.73 C 2271.48,597.238 2361.86,514 2467.84,450.16 l 18.04,-10.808 -40.26,-302.633 158.91,-59.2971 168.58,256.7501 20.48,-3.613 c 122.06,-19.661 245.37,-14.571 365.73,15.5 l 20.13,5.082 185.57,-242.653 154.18,70.852 -62.11,300.43 16.77,12.109 c 100.46,72.332 183.81,162.859 247.78,269.16 l 10.78,17.813 z m 136.87,184.332 -94.9,-254.422 -311.59,41.711 C 3702.21,610.102 3622.61,523.711 3527.96,452.48 L 3592.14,142.102 3345.23,29.6016 3154.13,279.34 C 3038.74,253.129 2920.76,248.012 2804.05,264.672 L 2630.06,0 2375.67,94.6406 2417.22,406.469 c -100,63 -186.75,142.812 -257.95,237.383 l -310.04,-64.122 -112.78,246.821 249.72,191.229 c -26.19,115.27 -30.91,232.97 -14.6,349.93 l -264.75,173.77 94.95,254.71 311.67,-41.48 c 63.14,99.88 142.76,186.45 237.5,257.58 l -64.28,310.3 247.04,112.69 191,-249.82 c 115.51,26.35 233.07,31.19 350.04,14.56 l 173.9,264.76 254.32,-94.99 -41.37,-311.52 c 99.85,-63.07 186.39,-142.79 257.62,-237.44 l 310.23,64.3 112.74,-246.94 -249.7,-190.98 c 26.18,-115.64 31.06,-233.09 14.58,-350.18 l 264.72,-173.999" /><path
         id="path28"
         style="fill:#ffffff;fill-opacity:1;fill-rule:nonzero;stroke:none"
         d="m 3648.82,967.82 c 145.82,391.17 -53.89,828.15 -445.07,974.1 -391.25,145.47 -828.03,-53.87 -973.9,-445.2 -145.81,-391.31 53.74,-828.04 445.1,-974.001 391.16,-145.367 828.01,54.011 973.87,445.101 m 445.29,-70.289 -59.21,-158.832 -302.49,40.153 -10.78,-17.813 C 3657.67,654.73 3574.32,564.211 3473.85,491.879 l -16.77,-12.109 62.11,-300.43 -154.18,-70.852 -185.57,242.653 -20.12,-5.082 C 3038.96,315.98 2915.65,310.898 2793.59,330.551 l -20.48,3.621 -168.59,-256.7501 -158.9,59.2971 40.25,302.633 -18.04,10.808 C 2361.86,514 2271.48,597.238 2198.9,698.039 l -12,16.742 -300.64,-62.34 -70.49,154.469 242.32,185.379 -5.17,20.541 c -30.08,120.36 -34.93,243.27 -15.09,365.33 l 3.22,20.43 -256.52,168.37 59.32,158.97 302.38,-40.29 10.94,18.23 c 63.47,105.82 146.95,196.54 247.92,269.37 l 16.61,11.67 -62.26,300.67 154.33,70.61 185.44,-242.47 20.48,5.01 c 120.14,29.97 243.3,35.17 365.35,15.13 l 20.53,-3.12 168.56,256.38 158.93,-59.43 -40.3,-302.43 17.95,-10.53 c 106.11,-63.82 196.82,-147.18 269.14,-248.02 l 12.18,-16.74 300.65,62.34 70.37,-154.43 -242.43,-185.52 5.12,-20.15 c 30.16,-120.64 35.38,-243.43 15.27,-365.52 l -3.38,-20.37 256.48,-168.789" /><path
         id="path30"
         style="fill:#ffffff;fill-opacity:1;fill-rule:nonzero;stroke:none"
         d="m 2701.41,593.34 c 352.33,-131.27 745.84,48.289 877,400.66 131.42,352.53 -48.29,746.17 -400.89,877.42 -352.26,131.43 -746,-48.42 -877.27,-400.88 -131.44,-352.27 48.49,-745.79 401.16,-877.2 m 502.34,1348.58 c 391.19,-145.94 590.89,-582.93 445.07,-974.1 -145.86,-391.09 -582.71,-590.468 -973.87,-445.101 -391.36,145.961 -590.91,582.691 -445.1,974.001 145.88,391.34 582.65,590.67 973.9,445.2" /></g></g></svg>